<svg xmlns="http://www.w3.org/2000/svg" viewBox="0 0 322 163.5"><defs><style>.cls-1,.cls-2{fill:#fff;}.cls-2{stroke:#000;stroke-miterlimit:10;stroke-width:0.6px;}</style></defs><g id="Capa_2" data-name="Capa 2"><g id="Capa_1-2" data-name="Capa 1"><rect class="cls-1" width="322" height="163.5"/><path class="cls-2" d="M116.71,36.72H160.2s20,.88,23.52,20.63c0,0,.88,4-1.56,5.1h-42.6s-19.08-.22-22.85-22.63Z"/><path class="cls-2" d="M159,127.9,137.3,90.24s-9.21-17.74,6.12-30.68c0,0,3-2.77,5.2-1.21l21.29,36.9s9.34,16.64-8.19,31.1Z"/><path class="cls-2" d="M212.54,49.94,190.3,87.31s-11,16.7-29.76,9.66c0,0-3.88-1.28-3.59-4l21.79-36.61s9.94-16.28,31.13-8.06Z"/></g></g></svg>